<?xml version="1.0" encoding="utf-8"?>
<svg version="1.1" xmlns:xlink="http://www.w3.org/1999/xlink" width="60px" height="60px" xmlns="http://www.w3.org/2000/svg">
    <g transform="matrix(1 0 0 1 -992 -991 )">
        <path d="M 59.9385263157895 30  C 59.9385263157895 46.5322105263158  46.538947368421 59.9385263157895  30 59.9385263157895  C 13.461052631579 59.9385263157895  0.0614736842105259 46.5322105263158  0.0614736842105259 30  C 0.0614736842105259 13.4677894736842  13.461052631579 0.0614736842105259  30 0.0614736842105259  C 46.538947368421 0.0614736842105259  59.9385263157895 13.4677894736842  59.9385263157895 30  Z M 44.9692631578947 31  L 30 31  L 30 16.9035789473684  C 30 15.8728421052632  29.1646315789474 15.0307368421053  28.1271578947369 15.0307368421053  C 27.0896842105263 15.0307368421053  26.2543157894737 15.8661052631579  27 16.9035789473684  L 27 33.7456842105263  C 26.2543157894737 34.7764210526316  27.0896842105263 35.6185263157895  28.1271578947369 35  L 44.9692631578947 35  C 46 35.6185263157895  46.8421052631579 34.7831578947369  46.8421052631579 33.7456842105263  C 46.8421052631579 32.7149473684211  46.0067368421053 31.8728421052631  44.9692631578947 31  Z " fill-rule="nonzero" fill="#f7a46b" stroke="none" transform="matrix(1 0 0 1 992 991 )" />
    </g>
</svg>